# xmcd
#
# Track frame offsets:
#	150
#	26705
#	44487
#	59102
#	77115
#	100570
#	117650
#	139477
#	154940
#	174172
#	195290
#	208877
#	226467
#	243595
#	257787
#	277522
#	293242
#	309635
#
# Disc length: 4322
#
# Revision: 1
# Processed by: cddbd v1.5.1PL0 Copyright (c) Steve Scherf et al.
# Submitted via: CDex 1.50Beta5
# Normalized: r0:DSETVAR1,TDELIM( - )
#
DISCID=0a10e012
DTITLE=Various Artist - Americana, the best of new American music [CD2/2)
DYEAR=2002
DGENRE=Country
TTITLE0=Lucinda Williams - Essence
TTITLE1=Whiskeytown - Don't wanna know why
TTITLE2=Chip Taylor and Guy Clarck - One hell of a guy
TTITLE3=Cowboy Junkies - Angel mine
TTITLE4=John Hiatt - Buffalo River Home
TTITLE5=Eric Taylor - Louis Amstrong's broken heart
TTITLE6=Emmylou Harris - Wrecking ball
TTITLE7=Billy Bob Thornton - Angelina
TTITLE8=Cash Brothers - Night shift guru
TTITLE9=Julie Miller - I still cry
TTITLE10=Jimmy Dale Gilmore - Banks of the guadalupe
TTITLE11=Heather Myles - True love
TTITLE12=Ray Wylie Hubbard - Without love
TTITLE13=The Gourds - El Paso
TTITLE14=The Mother Hips - Take us out
TTITLE15=Michael De Jong - Time will pass like rain
TTITLE16=Don Was Feat. Merle Haggard (Orquestra Was) - I'm so tired of it all
TTITLE17=The Woodys - Circle of angels
EXTD=YEAR: 2002
EXTT0=
EXTT1=
EXTT2=
EXTT3=
EXTT4=
EXTT5=
EXTT6=
EXTT7=
EXTT8=
EXTT9=
EXTT10=
EXTT11=
EXTT12=
EXTT13=
EXTT14=
EXTT15=
EXTT16=
EXTT17=
PLAYORDER=
